<svg xmlns="http://www.w3.org/2000/svg" xmlns:xlink="http://www.w3.org/1999/xlink" version="1.1" x="0px" y="0px" viewBox="0 0 100 100" style="enable-background:new 0 0 100 100;" xml:space="preserve"><style type="text/css">
	.st0{fill:none;stroke:#000000;stroke-miterlimit:10;}
	.st1{fill:none;}
	.st2{fill:#FFFF00;}
</style><path d="M60,27.5v-1.6h-1.4c-0.8,0-1.5-0.7-1.5-1.5v-0.6c0-3.6-2.6-6.8-6.1-7.2c-4.3-0.6-8,2.8-8,7v0.8c0,0.8-0.7,1.5-1.5,1.5H40  v1.6c-7.3,0.7-13.5,2-17.6,3.8v0.4h55.2v-0.4C73.5,29.6,67.3,28.2,60,27.5z M44.7,27.2v-1.3l0-2.1c0-2.8,2-5.2,4.8-5.5  c3.2-0.3,5.8,2.2,5.8,5.3v2.3v1.3c-1.7-0.1-3.5-0.1-5.3-0.1S46.4,27.1,44.7,27.2z"></path><path d="M82.9,38.8h-5.7l0.4-5.9H22.4l0.4,5.9h-5.7c-2.3,0-4.1,1.8-4.1,4.1v5.9c0,1.5,0.9,2.8,2.2,3.4l8.6,3.8l0.5,8  c0.5,8,4.7,15,10.9,19.3h29.5c6.2-4.3,10.3-11.3,10.9-19.3l0.5-8l8.6-3.8c1.4-0.6,2.2-2,2.2-3.4V43C87,40.7,85.2,38.8,82.9,38.8z   M23.6,53.5l-7.4-3.3c-0.5-0.2-0.8-0.7-0.8-1.3V43c0-1,0.8-1.8,1.8-1.8h5.8l0.6,10.2V53.5z M84.7,48.9c0,0.6-0.3,1.1-0.8,1.3  l-7.4,3.3v-2.1l0.6-10.2h5.8c1,0,1.8,0.8,1.8,1.8V48.9z"></path></svg>